<?xml version="1.0" encoding="UTF-8" standalone="no"?>
<!DOCTYPE svg PUBLIC "-//W3C//DTD SVG 1.1//EN" "http://www.w3.org/Graphics/SVG/1.1/DTD/svg11.dtd">
<svg xmlns="http://www.w3.org/2000/svg" version="1.1" viewBox="0.00 0.00 256.00 256.00">
<g stroke-width="2.00" fill="none" stroke-linecap="butt">
<path stroke="#441f6f" vector-effect="non-scaling-stroke" d="
  M 213.87 221.58
  A 0.48 0.48 0.0 0 0 214.34 221.10
  A 770.86 16.55 -89.7 0 0 214.31 115.05
  L 214.03 106.89
  L 213.25 99.23
  L 211.99 92.25
  L 210.25 86.02
  A 1727.78 377.64 -42.0 0 0 178.73 42.55
  A 566.00 191.61 -84.2 0 0 152.95 30.17
  A 701.42 0.89 12.3 0 0 142.50 27.76
  A 704.34 195.58 -71.9 0 0 113.34 28.38
  L 109.91 29.11
  L 105.63 30.05
  L 102.44 31.01
  L 96.13 33.53
  L 89.98 36.53
  L 84.17 39.93
  L 78.63 43.75
  L 73.54 47.90
  L 68.96 52.29
  L 64.80 57.04
  L 61.22 61.96
  A 598.91 34.56 -44.3 0 0 53.25 76.43
  A 177.94 3.69 -65.6 0 1 50.48 83.75
  A 96.91 51.55 39.1 0 0 48.53 91.29
  A 1182.05 6.99 -80.1 0 0 46.52 108.56
  A 891.19 26.68 -88.8 0 1 46.61 209.25
  L 46.61 209.67
  L 46.75 212.69
  L 47.01 213.70
  L 47.46 214.61
  L 48.45 215.65
  L 50.00 216.52
  L 58.75 219.88
  L 62.08 220.85
  L 64.86 221.38
  L 68.53 221.62
  L 72.19 221.37
  L 74.93 220.84
  L 77.57 220.05
  L 80.20 218.98
  L 82.95 217.58
  L 85.74 215.88
  L 88.70 213.83
  L 96.16 207.90
  A 123.52 51.75 58.6 0 1 102.50 204.24
  L 104.69 203.73
  L 106.74 203.78
  L 108.92 204.35
  L 111.29 205.46
  L 113.99 207.18
  L 116.10 208.84
  L 119.18 211.62
  L 122.93 214.99
  L 125.75 217.25
  L 128.35 219.00
  L 130.80 220.26
  L 132.89 220.99
  L 135.09 221.47
  L 137.35 221.69
  L 139.64 221.67
  L 141.93 221.39
  L 144.18 220.86
  L 146.35 220.09
  L 148.41 219.08
  L 153.02 215.98
  L 158.84 211.08
  L 163.41 207.19
  A 1314.23 116.84 -88.4 0 1 179.94 207.20
  L 183.18 210.07
  L 187.49 213.88
  L 190.90 216.55
  L 194.12 218.65
  L 197.22 220.20
  L 199.83 221.01
  L 202.98 221.49
  L 206.80 221.69
  L 211.81 221.63
  L 213.87 221.58"
/>
<path stroke="#808080" vector-effect="non-scaling-stroke" d="
  M 89.99 201.82
  L 93.62 199.03
  L 97.33 197.03
  L 101.20 195.77
  L 105.08 195.28
  L 107.42 195.36
  L 109.74 195.70
  L 112.04 196.32
  L 114.31 197.19
  L 116.53 198.32
  L 118.71 199.70
  L 120.82 201.33
  L 122.87 203.19
  L 123.15 203.46
  L 127.71 207.77
  L 131.16 210.39
  L 134.52 212.13
  L 136.19 212.65
  L 137.93 212.96
  L 139.53 213.05
  L 141.60 212.64
  L 144.20 211.47
  L 147.44 209.44
  L 150.39 207.14
  A 665.78 4.97 -44.3 0 1 158.99 199.73
  A 1531.40 166.18 89.1 0 1 182.47 198.26
  L 185.88 200.67
  L 190.73 204.92
  L 195.72 209.24
  A 265.24 61.09 -38.7 0 0 204.77 212.97
  A 0.37 0.36 8.0 0 0 205.20 212.65
  A 32.30 19.48 79.8 0 0 205.40 208.27
  A 1482.98 3.36 89.7 0 1 205.38 116.56
  A 173.17 7.48 -83.5 0 0 205.17 109.47
  L 204.85 104.41
  L 204.40 98.30
  L 203.64 94.03
  L 202.16 88.84
  L 200.38 83.83
  L 198.32 79.02
  L 195.99 74.42
  L 193.36 69.99
  L 190.45 65.77
  L 187.29 61.79
  L 183.86 58.04
  L 180.94 55.21
  L 177.85 52.54
  L 174.62 50.04
  L 171.23 47.70
  L 167.73 45.56
  L 164.10 43.58
  L 160.32 41.78
  L 156.41 40.16
  A 198.75 60.37 -23.1 0 0 143.85 36.87
  A 575.34 13.42 15.2 0 0 130.82 35.28
  L 123.05 35.60
  L 114.98 36.70
  L 107.37 38.48
  L 103.85 39.59
  L 100.51 40.86
  A 1501.70 325.94 50.3 0 0 65.59 70.96
  L 63.98 74.03
  L 62.32 77.09
  A 160.07 17.94 84.0 0 0 60.32 81.85
  L 58.90 85.98
  L 57.29 90.72
  L 56.66 94.28
  A 894.42 4.16 -84.2 0 0 55.76 109.00
  A 706.45 13.77 -89.8 0 0 55.68 208.06
  A 98.23 10.73 -32.6 0 0 56.51 209.33
  A 125.66 67.88 72.0 0 0 67.03 212.88
  L 69.19 213.12
  L 71.64 212.89
  L 74.21 212.20
  L 76.99 211.04
  L 79.99 209.41
  L 83.13 207.34
  L 86.42 204.85
  L 89.99 201.82"
/>
<path stroke="#808080" vector-effect="non-scaling-stroke" d="
  M 137.9447 118.9094
  A 15.44 11.03 89.5 0 0 148.8396 103.3737
  A 15.44 11.03 89.5 0 0 137.6753 88.0306
  A 15.44 11.03 89.5 0 0 126.7804 103.5663
  A 15.44 11.03 89.5 0 0 137.9447 118.9094"
/>
<path stroke="#808080" vector-effect="non-scaling-stroke" d="
  M 181.8253 119.0094
  A 15.50 11.03 89.5 0 0 192.7196 103.4137
  A 15.50 11.03 89.5 0 0 181.5547 88.0106
  A 15.50 11.03 89.5 0 0 170.6604 103.6063
  A 15.50 11.03 89.5 0 0 181.8253 119.0094"
/>
</g>
<path fill="#883ede" d="
  M 256.00 0.00
  L 256.00 256.00
  L 0.00 256.00
  L 0.00 0.00
  L 256.00 0.00
  Z
  M 213.87 221.58
  A 0.48 0.48 0.0 0 0 214.34 221.10
  A 770.86 16.55 -89.7 0 0 214.31 115.05
  L 214.03 106.89
  L 213.25 99.23
  L 211.99 92.25
  L 210.25 86.02
  A 1727.78 377.64 -42.0 0 0 178.73 42.55
  A 566.00 191.61 -84.2 0 0 152.95 30.17
  A 701.42 0.89 12.3 0 0 142.50 27.76
  A 704.34 195.58 -71.9 0 0 113.34 28.38
  L 109.91 29.11
  L 105.63 30.05
  L 102.44 31.01
  L 96.13 33.53
  L 89.98 36.53
  L 84.17 39.93
  L 78.63 43.75
  L 73.54 47.90
  L 68.96 52.29
  L 64.80 57.04
  L 61.22 61.96
  A 598.91 34.56 -44.3 0 0 53.25 76.43
  A 177.94 3.69 -65.6 0 1 50.48 83.75
  A 96.91 51.55 39.1 0 0 48.53 91.29
  A 1182.05 6.99 -80.1 0 0 46.52 108.56
  A 891.19 26.68 -88.8 0 1 46.61 209.25
  L 46.61 209.67
  L 46.75 212.69
  L 47.01 213.70
  L 47.46 214.61
  L 48.45 215.65
  L 50.00 216.52
  L 58.75 219.88
  L 62.08 220.85
  L 64.86 221.38
  L 68.53 221.62
  L 72.19 221.37
  L 74.93 220.84
  L 77.57 220.05
  L 80.20 218.98
  L 82.95 217.58
  L 85.74 215.88
  L 88.70 213.83
  L 96.16 207.90
  A 123.52 51.75 58.6 0 1 102.50 204.24
  L 104.69 203.73
  L 106.74 203.78
  L 108.92 204.35
  L 111.29 205.46
  L 113.99 207.18
  L 116.10 208.84
  L 119.18 211.62
  L 122.93 214.99
  L 125.75 217.25
  L 128.35 219.00
  L 130.80 220.26
  L 132.89 220.99
  L 135.09 221.47
  L 137.35 221.69
  L 139.64 221.67
  L 141.93 221.39
  L 144.18 220.86
  L 146.35 220.09
  L 148.41 219.08
  L 153.02 215.98
  L 158.84 211.08
  L 163.41 207.19
  A 1314.23 116.84 -88.4 0 1 179.94 207.20
  L 183.18 210.07
  L 187.49 213.88
  L 190.90 216.55
  L 194.12 218.65
  L 197.22 220.20
  L 199.83 221.01
  L 202.98 221.49
  L 206.80 221.69
  L 211.81 221.63
  L 213.87 221.58
  Z"
/>
<path fill="#000000" d="
  M 213.87 221.58
  L 211.81 221.63
  L 206.80 221.69
  L 202.98 221.49
  L 199.83 221.01
  L 197.22 220.20
  L 194.12 218.65
  L 190.90 216.55
  L 187.49 213.88
  L 183.18 210.07
  L 179.94 207.20
  A 1314.23 116.84 -88.4 0 0 163.41 207.19
  L 158.84 211.08
  L 153.02 215.98
  L 148.41 219.08
  L 146.35 220.09
  L 144.18 220.86
  L 141.93 221.39
  L 139.64 221.67
  L 137.35 221.69
  L 135.09 221.47
  L 132.89 220.99
  L 130.80 220.26
  L 128.35 219.00
  L 125.75 217.25
  L 122.93 214.99
  L 119.18 211.62
  L 116.10 208.84
  L 113.99 207.18
  L 111.29 205.46
  L 108.92 204.35
  L 106.74 203.78
  L 104.69 203.73
  L 102.50 204.24
  A 123.52 51.75 58.6 0 0 96.16 207.90
  L 88.70 213.83
  L 85.74 215.88
  L 82.95 217.58
  L 80.20 218.98
  L 77.57 220.05
  L 74.93 220.84
  L 72.19 221.37
  L 68.53 221.62
  L 64.86 221.38
  L 62.08 220.85
  L 58.75 219.88
  L 50.00 216.52
  L 48.45 215.65
  L 47.46 214.61
  L 47.01 213.70
  L 46.75 212.69
  L 46.61 209.67
  L 46.61 209.25
  A 891.19 26.68 -88.8 0 0 46.52 108.56
  A 1182.05 6.99 -80.1 0 1 48.53 91.29
  A 96.91 51.55 39.1 0 1 50.48 83.75
  A 177.94 3.69 -65.6 0 0 53.25 76.43
  A 598.91 34.56 -44.3 0 1 61.22 61.96
  L 64.80 57.04
  L 68.96 52.29
  L 73.54 47.90
  L 78.63 43.75
  L 84.17 39.93
  L 89.98 36.53
  L 96.13 33.53
  L 102.44 31.01
  L 105.63 30.05
  L 109.91 29.11
  L 113.34 28.38
  A 704.34 195.58 -71.9 0 1 142.50 27.76
  A 701.42 0.89 12.3 0 1 152.95 30.17
  A 566.00 191.61 -84.2 0 1 178.73 42.55
  A 1727.78 377.64 -42.0 0 1 210.25 86.02
  L 211.99 92.25
  L 213.25 99.23
  L 214.03 106.89
  L 214.31 115.05
  A 770.86 16.55 -89.7 0 1 214.34 221.10
  A 0.48 0.48 0.0 0 1 213.87 221.58
  Z
  M 89.99 201.82
  L 93.62 199.03
  L 97.33 197.03
  L 101.20 195.77
  L 105.08 195.28
  L 107.42 195.36
  L 109.74 195.70
  L 112.04 196.32
  L 114.31 197.19
  L 116.53 198.32
  L 118.71 199.70
  L 120.82 201.33
  L 122.87 203.19
  L 123.15 203.46
  L 127.71 207.77
  L 131.16 210.39
  L 134.52 212.13
  L 136.19 212.65
  L 137.93 212.96
  L 139.53 213.05
  L 141.60 212.64
  L 144.20 211.47
  L 147.44 209.44
  L 150.39 207.14
  A 665.78 4.97 -44.3 0 1 158.99 199.73
  A 1531.40 166.18 89.1 0 1 182.47 198.26
  L 185.88 200.67
  L 190.73 204.92
  L 195.72 209.24
  A 265.24 61.09 -38.7 0 0 204.77 212.97
  A 0.37 0.36 8.0 0 0 205.20 212.65
  A 32.30 19.48 79.8 0 0 205.40 208.27
  A 1482.98 3.36 89.7 0 1 205.38 116.56
  A 173.17 7.48 -83.5 0 0 205.17 109.47
  L 204.85 104.41
  L 204.40 98.30
  L 203.64 94.03
  L 202.16 88.84
  L 200.38 83.83
  L 198.32 79.02
  L 195.99 74.42
  L 193.36 69.99
  L 190.45 65.77
  L 187.29 61.79
  L 183.86 58.04
  L 180.94 55.21
  L 177.85 52.54
  L 174.62 50.04
  L 171.23 47.70
  L 167.73 45.56
  L 164.10 43.58
  L 160.32 41.78
  L 156.41 40.16
  A 198.75 60.37 -23.1 0 0 143.85 36.87
  A 575.34 13.42 15.2 0 0 130.82 35.28
  L 123.05 35.60
  L 114.98 36.70
  L 107.37 38.48
  L 103.85 39.59
  L 100.51 40.86
  A 1501.70 325.94 50.3 0 0 65.59 70.96
  L 63.98 74.03
  L 62.32 77.09
  A 160.07 17.94 84.0 0 0 60.32 81.85
  L 58.90 85.98
  L 57.29 90.72
  L 56.66 94.28
  A 894.42 4.16 -84.2 0 0 55.76 109.00
  A 706.45 13.77 -89.8 0 0 55.68 208.06
  A 98.23 10.73 -32.6 0 0 56.51 209.33
  A 125.66 67.88 72.0 0 0 67.03 212.88
  L 69.19 213.12
  L 71.64 212.89
  L 74.21 212.20
  L 76.99 211.04
  L 79.99 209.41
  L 83.13 207.34
  L 86.42 204.85
  L 89.99 201.82
  Z"
/>
<path fill="#ffffff" d="
  M 122.87 203.19
  L 120.82 201.33
  L 118.71 199.70
  L 116.53 198.32
  L 114.31 197.19
  L 112.04 196.32
  L 109.74 195.70
  L 107.42 195.36
  L 105.08 195.28
  L 101.20 195.77
  L 97.33 197.03
  L 93.62 199.03
  L 89.99 201.82
  L 86.42 204.85
  L 83.13 207.34
  L 79.99 209.41
  L 76.99 211.04
  L 74.21 212.20
  L 71.64 212.89
  L 69.19 213.12
  L 67.03 212.88
  A 125.66 67.88 72.0 0 1 56.51 209.33
  A 98.23 10.73 -32.6 0 1 55.68 208.06
  A 706.45 13.77 -89.8 0 1 55.76 109.00
  A 894.42 4.16 -84.2 0 1 56.66 94.28
  L 57.29 90.72
  L 58.90 85.98
  L 60.32 81.85
  A 160.07 17.94 84.0 0 1 62.32 77.09
  L 63.98 74.03
  L 65.59 70.96
  A 1501.70 325.94 50.3 0 1 100.51 40.86
  L 103.85 39.59
  L 107.37 38.48
  L 114.98 36.70
  L 123.05 35.60
  L 130.82 35.28
  A 575.34 13.42 15.2 0 1 143.85 36.87
  A 198.75 60.37 -23.1 0 1 156.41 40.16
  L 160.32 41.78
  L 164.10 43.58
  L 167.73 45.56
  L 171.23 47.70
  L 174.62 50.04
  L 177.85 52.54
  L 180.94 55.21
  L 183.86 58.04
  L 187.29 61.79
  L 190.45 65.77
  L 193.36 69.99
  L 195.99 74.42
  L 198.32 79.02
  L 200.38 83.83
  L 202.16 88.84
  L 203.64 94.03
  L 204.40 98.30
  L 204.85 104.41
  L 205.17 109.47
  A 173.17 7.48 -83.5 0 1 205.38 116.56
  A 1482.98 3.36 89.7 0 0 205.40 208.27
  A 32.30 19.48 79.8 0 1 205.20 212.65
  A 0.37 0.36 8.0 0 1 204.77 212.97
  A 265.24 61.09 -38.7 0 1 195.72 209.24
  L 190.73 204.92
  L 185.88 200.67
  L 182.47 198.26
  A 1531.40 166.18 89.1 0 0 158.99 199.73
  A 665.78 4.97 -44.3 0 0 150.39 207.14
  L 147.44 209.44
  L 144.20 211.47
  L 141.60 212.64
  L 139.53 213.05
  L 137.93 212.96
  L 136.19 212.65
  L 134.52 212.13
  L 131.16 210.39
  L 127.71 207.77
  L 123.15 203.46
  L 122.87 203.19
  Z
  M 137.9447 118.9094
  A 15.44 11.03 89.5 0 0 148.8396 103.3737
  A 15.44 11.03 89.5 0 0 137.6753 88.0306
  A 15.44 11.03 89.5 0 0 126.7804 103.5663
  A 15.44 11.03 89.5 0 0 137.9447 118.9094
  Z
  M 181.8253 119.0094
  A 15.50 11.03 89.5 0 0 192.7196 103.4137
  A 15.50 11.03 89.5 0 0 181.5547 88.0106
  A 15.50 11.03 89.5 0 0 170.6604 103.6063
  A 15.50 11.03 89.5 0 0 181.8253 119.0094
  Z"
/>
<ellipse fill="#000000" cx="0.00" cy="0.00" transform="translate(137.81,103.47) rotate(89.5)" rx="15.44" ry="11.03"/>
<ellipse fill="#000000" cx="0.00" cy="0.00" transform="translate(181.69,103.51) rotate(89.5)" rx="15.50" ry="11.03"/>
</svg>
